<?xml version="1.0" encoding="utf-8"?>
<!-- Generator: Adobe Illustrator 17.1.0, SVG Export Plug-In . SVG Version: 6.00 Build 0)  -->
<!DOCTYPE svg PUBLIC "-//W3C//DTD SVG 1.1//EN" "http://www.w3.org/Graphics/SVG/1.1/DTD/svg11.dtd">
<svg version="1.1" id="Capa_1" xmlns="http://www.w3.org/2000/svg" xmlns:xlink="http://www.w3.org/1999/xlink" x="0px" y="0px"
	 viewBox="0 0 504.7 500" enable-background="new 0 0 504.7 500" xml:space="preserve">
<g>
	<path fill="#2CA6DB" d="M466.5,396.3H38.2c-21,0-38.2-17.1-38.2-38.2V60.5c0-21,17.1-38.2,38.2-38.2h112.5c5,0,9.1,4.1,9.1,9.1
		s-4.1,9.1-9.1,9.1H38.2c-11,0-19.9,8.9-19.9,19.9v297.7c0,11,8.9,19.9,19.9,19.9h428.4c11,0,19.9-8.9,19.9-19.9V60.5
		c0-11-8.9-19.9-19.9-19.9H354c-5,0-9.1-4.1-9.1-9.1s4.1-9.1,9.1-9.1h112.5c21,0,38.2,17.1,38.2,38.2v297.7
		C504.7,379.2,487.6,396.3,466.5,396.3z"/>
	<path fill="#2CA6DB" d="M344.4,62.3h-184c-10.3,0-18.7-8.4-18.7-18.7V19.3c0-10.3,8.4-18.7,18.7-18.7h184
		c10.3,0,18.7,8.4,18.7,18.7v24.3C363.1,53.9,354.7,62.3,344.4,62.3z M160.3,18.8l-0.5,24.8l184.5,0.5c0.3,0,0.5-0.2,0.5-0.5V19.3
		L160.3,18.8z"/>
	<path fill="#2CA6DB" d="M495.6,360H9.1c-5,0-9.1-4.1-9.1-9.1c0-5,4.1-9.1,9.1-9.1h486.5c5,0,9.1,4.1,9.1,9.1
		C504.7,355.9,500.6,360,495.6,360z"/>
	<path fill="#2CA6DB" d="M123.5,501.6c-2.3,0-4.7-0.9-6.5-2.7c-3.6-3.6-3.6-9.3,0-12.9l105.3-105.3c3.6-3.6,9.3-3.6,12.9,0
		c3.6,3.6,3.6,9.3,0,12.9L129.9,498.9C128.1,500.7,125.8,501.6,123.5,501.6z"/>
	<path fill="#2CA6DB" d="M381.2,501.6c-2.3,0-4.7-0.9-6.5-2.7L269.5,393.6c-3.6-3.6-3.6-9.3,0-12.9c3.6-3.6,9.3-3.6,12.9,0
		L387.7,486c3.6,3.6,3.6,9.3,0,12.9C385.9,500.7,383.6,501.6,381.2,501.6z"/>
	<path fill="#2CA6DB" d="M73.7,284.8c-5,0-9.1-4.1-9.1-9.1v-39c0-5,4.1-9.1,9.1-9.1s9.1,4.1,9.1,9.1v39
		C82.8,280.7,78.7,284.8,73.7,284.8z"/>
	<path fill="#2CA6DB" d="M100.5,284.8c-5,0-9.1-4.1-9.1-9.1v-58.5c0-5,4.1-9.1,9.1-9.1c5,0,9.1,4.1,9.1,9.1v58.5
		C109.6,280.7,105.5,284.8,100.5,284.8z"/>
	<path fill="#2CA6DB" d="M127.2,284.8c-5,0-9.1-4.1-9.1-9.1v-78c0-5,4.1-9.1,9.1-9.1s9.1,4.1,9.1,9.1v78
		C136.4,280.7,132.3,284.8,127.2,284.8z"/>
	<path fill="#2CA6DB" d="M154,284.8c-5,0-9.1-4.1-9.1-9.1v-48.8c0-5,4.1-9.1,9.1-9.1c5,0,9.1,4.1,9.1,9.1v48.8
		C163.1,280.7,159.1,284.8,154,284.8z"/>
	<path fill="#2CA6DB" d="M180.8,284.8c-5,0-9.1-4.1-9.1-9.1v-65c0-5,4.1-9.1,9.1-9.1s9.1,4.1,9.1,9.1v65
		C189.9,280.7,185.8,284.8,180.8,284.8z"/>
	<path fill="#2CA6DB" d="M207.6,284.8c-5,0-9.1-4.1-9.1-9.1v-84.5c0-5,4.1-9.1,9.1-9.1c5,0,9.1,4.1,9.1,9.1v84.5
		C216.7,280.7,212.6,284.8,207.6,284.8z"/>
	<path fill="#2CA6DB" d="M234.3,284.8c-5,0-9.1-4.1-9.1-9.1v-104c0-5,4.1-9.1,9.1-9.1c5,0,9.1,4.1,9.1,9.1v104
		C243.4,280.7,239.4,284.8,234.3,284.8z"/>
	<path fill="#2CA6DB" d="M67.7,211.1c-2.8,0-5.6-1.3-7.4-3.7c-3-4.1-2.1-9.8,2-12.7l59.6-43.5c3.9-2.9,9.4-2.2,12.4,1.6l21.3,26.1
		l76.8-56.1c4.1-3,9.8-2.1,12.7,2c3,4.1,2.1,9.8-2,12.8l-83.8,61.2c-3.9,2.9-9.4,2.1-12.4-1.6l-21.3-26.1l-52.6,38.4
		C71.4,210.5,69.5,211.1,67.7,211.1z"/>
	<path fill="#2CA6DB" d="M360.9,283c-46.5,0-84.3-37.8-84.3-84.3c0-40.4,28.8-75.2,68.5-82.8c2.7-0.5,5.4,0.2,7.5,1.9
		c2.1,1.7,3.3,4.3,3.3,7v78.8h78.8c2.7,0,5.3,1.2,7,3.3c1.7,2.1,2.4,4.8,1.9,7.5C436.2,254.2,401.4,283,360.9,283z M337.7,136.9
		c-25.4,9.5-42.8,34-42.8,61.8c0,36.4,29.6,66,66,66c27.9,0,52.3-17.5,61.8-42.8h-75.9c-5,0-9.1-4.1-9.1-9.1V136.9z"/>
	<path fill="#2CA6DB" d="M434.9,193.8c-0.1,0-0.1,0-0.2,0H375c-5,0-9.1-4.1-9.1-9.1v-59.7c0-2.7,1.2-5.3,3.3-7
		c2.1-1.7,4.9-2.5,7.5-1.9c33.1,6.3,59.6,32.4,66.6,65.2c0.4,1.1,0.7,2.3,0.7,3.5C444.1,189.7,440,193.8,434.9,193.8z M384.2,175.5
		h38.6c-6.7-17.7-20.9-31.9-38.6-38.6V175.5z"/>
</g>
</svg>
